<?xml version="1.0" encoding="utf-8"?>
<!-- Generator: Adobe Illustrator 16.0.4, SVG Export Plug-In . SVG Version: 6.00 Build 0)  -->
<!DOCTYPE svg PUBLIC "-//W3C//DTD SVG 1.1//EN" "http://www.w3.org/Graphics/SVG/1.1/DTD/svg11.dtd">
<svg version="1.1" id="Layer_1" xmlns="http://www.w3.org/2000/svg" xmlns:xlink="http://www.w3.org/1999/xlink" x="0px" y="0px"
	 width="79.999px" height="80px" viewBox="0 0 79.999 80" enable-background="new 0 0 79.999 80" xml:space="preserve">
<path fill="#FFFFFF" d="M10.926,20.067c0-2.651,1.583-5.02,4.032-6.034c2.449-1.015,5.243-0.459,7.118,1.415L59.726,53.1V37.647
	L29.801,7.723c-5.01-5.011-12.478-6.497-19.024-3.785C4.23,6.65,0,12.981,0,20.067v57.082V80l21.517-21.518l-1.243-1.244
	l-9.348,7.892V20.067z"/>
<path fill="#FFFFFF" d="M69.074,59.934c0,2.65-1.584,5.02-4.033,6.033c-2.448,1.016-5.242,0.459-7.117-1.414l-37.65-37.651v15.452
	l29.925,29.924c5.01,5.011,12.478,6.496,19.023,3.785C75.769,73.35,80,67.02,80,59.934V2.851V0L58.482,21.517l1.243,1.244
	l9.349-7.891V59.934z"/>
</svg>
